<svg width="1200" height="800" viewBox="0 0 1200 800" fill="none" xmlns="http://www.w3.org/2000/svg">
  <rect width="1200" height="800" fill="#F8F6F1"/>
  <rect x="84" y="96" width="1032" height="608" rx="24" fill="#FCFBF8" stroke="#D8D4CA" stroke-width="2"/>
  <rect x="130" y="140" width="430" height="264" rx="14" fill="#FFFFFF" stroke="#D8D4CA"/>
  <rect x="164" y="174" width="128" height="18" rx="9" fill="#EEF3FF"/>
  <rect x="164" y="214" width="292" height="18" rx="9" fill="#DDE7FF"/>
  <rect x="164" y="246" width="246" height="14" rx="7" fill="#E9E5DB"/>
  <rect x="164" y="274" width="214" height="14" rx="7" fill="#E9E5DB"/>
  <rect x="164" y="322" width="136" height="30" rx="15" fill="#181A1F"/>
  <rect x="314" y="322" width="120" height="30" rx="15" fill="#FFFFFF" stroke="#D8D4CA"/>
  <rect x="596" y="140" width="468" height="264" rx="14" fill="#FFFFFF" stroke="#D8D4CA"/>
  <rect x="630" y="172" width="182" height="148" rx="10" fill="#F4F8FF" stroke="#C5D5FB"/>
  <rect x="826" y="172" width="204" height="48" rx="10" fill="#FFFFFF" stroke="#D8D4CA"/>
  <rect x="826" y="230" width="204" height="48" rx="10" fill="#FFFFFF" stroke="#D8D4CA"/>
  <rect x="826" y="288" width="204" height="48" rx="10" fill="#FFFFFF" stroke="#D8D4CA"/>
  <rect x="130" y="430" width="934" height="228" rx="14" fill="#FFFFFF" stroke="#D8D4CA"/>
  <rect x="164" y="466" width="268" height="156" rx="10" fill="#FCFBF8" stroke="#D8D4CA"/>
  <rect x="446" y="466" width="268" height="156" rx="10" fill="#FCFBF8" stroke="#D8D4CA"/>
  <rect x="728" y="466" width="302" height="156" rx="10" fill="#FCFBF8" stroke="#D8D4CA"/>
  <circle cx="735" cy="153" r="40" fill="#EBF1FF"/>
  <circle cx="757" cy="139" r="8" fill="#1A58D9"/>
  <circle cx="775" cy="167" r="6" fill="#1A58D9" fill-opacity="0.6"/>
  <path d="M164 543H392" stroke="#D8D4CA" stroke-width="10" stroke-linecap="round"/>
  <path d="M446 543H674" stroke="#D8D4CA" stroke-width="10" stroke-linecap="round"/>
  <path d="M728 543H996" stroke="#D8D4CA" stroke-width="10" stroke-linecap="round"/>
</svg>
