<svg width="1200" height="800" viewBox="0 0 1200 800" fill="none" xmlns="http://www.w3.org/2000/svg">
  <rect width="1200" height="800" fill="#F8F6F1"/>
  <rect x="74" y="92" width="1052" height="616" rx="28" fill="#FCFBF8" stroke="#D8D4CA" stroke-width="2"/>
  <rect x="166" y="510" width="868" height="120" rx="20" fill="#FFFFFF" stroke="#D8D4CA" stroke-width="2"/>
  <rect x="244" y="254" width="400" height="236" rx="14" fill="#FFFFFF" stroke="#D8D4CA" stroke-width="2"/>
  <rect x="272" y="286" width="116" height="14" rx="7" fill="#EEF3FF"/>
  <rect x="272" y="320" width="260" height="14" rx="7" fill="#E9E5DB"/>
  <rect x="272" y="348" width="216" height="14" rx="7" fill="#E9E5DB"/>
  <rect x="272" y="390" width="120" height="30" rx="15" fill="#181A1F"/>
  <rect x="676" y="222" width="278" height="196" rx="14" fill="#FFFFFF" stroke="#D8D4CA" stroke-width="2"/>
  <rect x="700" y="248" width="230" height="28" rx="8" fill="#F4F8FF"/>
  <rect x="700" y="290" width="230" height="16" rx="8" fill="#E9E5DB"/>
  <rect x="700" y="316" width="184" height="16" rx="8" fill="#E9E5DB"/>
  <rect x="700" y="356" width="94" height="30" rx="10" fill="#EBF1FF" stroke="#C5D5FB"/>
  <rect x="236" y="548" width="180" height="44" rx="10" fill="#FCFBF8" stroke="#D8D4CA"/>
  <rect x="438" y="548" width="180" height="44" rx="10" fill="#FCFBF8" stroke="#D8D4CA"/>
  <rect x="640" y="548" width="180" height="44" rx="10" fill="#FCFBF8" stroke="#D8D4CA"/>
  <circle cx="952" cy="562" r="30" fill="#EBF1FF" stroke="#C5D5FB"/>
  <rect x="892" y="168" width="86" height="24" rx="12" fill="#FFFFFF" stroke="#D8D4CA"/>
  <rect x="786" y="168" width="94" height="24" rx="12" fill="#FFFFFF" stroke="#D8D4CA"/>
</svg>
