<svg width="1200" height="800" viewBox="0 0 1200 800" fill="none" xmlns="http://www.w3.org/2000/svg">
  <rect width="1200" height="800" fill="#F8F6F1"/>
  <rect x="86" y="92" width="1028" height="616" rx="28" fill="#FCFBF8" stroke="#D8D4CA" stroke-width="2"/>
  <path d="M256 242L456 196" stroke="#B8C7E8" stroke-width="2"/>
  <path d="M456 196L724 248" stroke="#B8C7E8" stroke-width="2"/>
  <path d="M724 248L934 202" stroke="#B8C7E8" stroke-width="2"/>
  <path d="M256 242L320 510" stroke="#B8C7E8" stroke-width="2"/>
  <path d="M456 196L566 466" stroke="#B8C7E8" stroke-width="2"/>
  <path d="M724 248L688 522" stroke="#B8C7E8" stroke-width="2"/>
  <path d="M934 202L880 478" stroke="#B8C7E8" stroke-width="2"/>
  <path d="M320 510L566 466" stroke="#B8C7E8" stroke-width="2"/>
  <path d="M566 466L688 522" stroke="#B8C7E8" stroke-width="2"/>
  <path d="M688 522L880 478" stroke="#B8C7E8" stroke-width="2"/>
  <rect x="194" y="202" width="124" height="74" rx="10" fill="#FFFFFF" stroke="#D8D4CA"/>
  <rect x="394" y="156" width="124" height="74" rx="10" fill="#FFFFFF" stroke="#D8D4CA"/>
  <rect x="662" y="208" width="124" height="74" rx="10" fill="#FFFFFF" stroke="#D8D4CA"/>
  <rect x="872" y="162" width="124" height="74" rx="10" fill="#FFFFFF" stroke="#D8D4CA"/>
  <rect x="258" y="470" width="124" height="74" rx="10" fill="#FFFFFF" stroke="#D8D4CA"/>
  <rect x="504" y="426" width="124" height="74" rx="10" fill="#FFFFFF" stroke="#D8D4CA"/>
  <rect x="626" y="482" width="124" height="74" rx="10" fill="#FFFFFF" stroke="#D8D4CA"/>
  <rect x="818" y="438" width="124" height="74" rx="10" fill="#FFFFFF" stroke="#D8D4CA"/>
  <rect x="214" y="224" width="84" height="12" rx="6" fill="#EBF1FF"/>
  <rect x="414" y="178" width="84" height="12" rx="6" fill="#EBF1FF"/>
  <rect x="682" y="230" width="84" height="12" rx="6" fill="#EBF1FF"/>
  <rect x="892" y="184" width="84" height="12" rx="6" fill="#EBF1FF"/>
  <rect x="278" y="492" width="84" height="12" rx="6" fill="#EBF1FF"/>
  <rect x="524" y="448" width="84" height="12" rx="6" fill="#EBF1FF"/>
  <rect x="646" y="504" width="84" height="12" rx="6" fill="#EBF1FF"/>
  <rect x="838" y="460" width="84" height="12" rx="6" fill="#EBF1FF"/>
</svg>
