<svg width="24" height="24" viewBox="0 0 24 24" fill="none" xmlns="http://www.w3.org/2000/svg"><path d="M12 3.5C7.3 3.5 3.5 7.3 3.5 12C3.5 15.7 5.9 18.9 9.2 20V17.8C7.1 18.3 6.6 16.9 6.6 16.9C6.2 15.9 5.6 15.6 5.6 15.6C4.8 15 5.7 15 5.7 15C6.5 15.1 6.9 15.8 6.9 15.8C7.7 17.1 8.9 16.8 9.3 16.6C9.4 16 9.6 15.6 9.9 15.4C8.2 15.2 6.4 14.5 6.4 11.3C6.4 10.4 6.7 9.7 7.2 9.1C7.1 8.9 6.8 7.9 7.3 6.6C7.3 6.6 8 6.4 9.3 7.3C10 7.1 10.9 7 11.8 7C12.7 7 13.6 7.1 14.3 7.3C15.6 6.4 16.3 6.6 16.3 6.6C16.8 7.9 16.5 8.9 16.4 9.1C16.9 9.7 17.2 10.4 17.2 11.3C17.2 14.5 15.4 15.2 13.7 15.4C14.1 15.8 14.4 16.4 14.4 17.3V20C17.7 18.9 20.1 15.7 20.1 12C20.1 7.3 16.3 3.5 12 3.5Z" stroke="#181A1F" stroke-width="1.2" stroke-linejoin="round"/></svg>
