<svg width="24" height="24" viewBox="0 0 24 24" fill="none" xmlns="http://www.w3.org/2000/svg"><path d="M14 4C10 5 7.8 8.2 7 12L12 17C15.8 16.2 19 14 20 10C20.5 7.9 20.2 5.8 19.3 4.7C18.2 3.8 16.1 3.5 14 4Z" stroke="#181A1F" stroke-width="1.8" stroke-linejoin="round"/><circle cx="14.5" cy="9.5" r="1.2" fill="#181A1F"/><path d="M7 12L4.5 12.5C4 12.6 3.6 13 3.5 13.5L3 16L5 15.5M12 17L11.5 19.5C11.4 20 11 20.4 10.5 20.5L8 21L8.5 19" stroke="#181A1F" stroke-width="1.8" stroke-linecap="round" stroke-linejoin="round"/></svg>
